# xmcd CD database file
#
# Track frame offsets:
#	150
#	23907
#	47218
#	74548
#	94021
#	129878
#	154415
#	171934
#	177356
#	209145
#	233222
#	258212
#
# Disc length: 3767 seconds
#
# Revision: 0
# Processed by: cddbd v1.5.2PL0 Copyright (c) Steve Scherf et al.
# Submitted via: CDex 1.70beta2
#
DISCID=ab0eb50c
DTITLE=Jacques Schwartz-Bart - Soné Ka La
DYEAR=2007
DGENRE=Jazz
TTITLE0=Papalé
TTITLE1=Soné Ka-La
TTITLE2=Love
TTITLE3=Toumblak
TTITLE4=Ascent
TTITLE5=Drum and Bass
TTITLE6=Déshabillé
TTITLE7=The Chains
TTITLE8=Gwoka
TTITLE9=Padjanbel
TTITLE10=Descent
TTITLE11=Pé La
EXTD=YEAR: 2007
EXTT0=
EXTT1=
EXTT2=
EXTT3=
EXTT4=
EXTT5=
EXTT6=
EXTT7=
EXTT8=
EXTT9=
EXTT10=
EXTT11=
PLAYORDER=
